<svg xmlns="http://www.w3.org/2000/svg" width="1200" height="760" viewBox="0 0 1200 760">
<rect width="1200" height="760" fill="#f8fafc"/>
<text x="60" y="90" font-size="40" fill="#0f172a" font-family="Arial, Helvetica, sans-serif">Seppmail-Operations-Runbooks - delivery view</text>
<rect x="60" y="140" width="250" height="120" rx="18" fill="#dbeafe" stroke="#60a5fa"/>
<text x="95" y="205" font-size="24" fill="#1d4ed8" font-family="Arial, Helvetica, sans-serif">Inputs</text>
<text x="95" y="236" font-size="18" fill="#1e3a8a" font-family="Arial, Helvetica, sans-serif">config, parameters, secrets</text>
<rect x="350" y="140" width="250" height="120" rx="18" fill="#dcfce7" stroke="#4ade80"/>
<text x="390" y="205" font-size="24" fill="#166534" font-family="Arial, Helvetica, sans-serif">Automation</text>
<text x="390" y="236" font-size="18" fill="#166534" font-family="Arial, Helvetica, sans-serif">scripts, templates, API calls</text>
<rect x="640" y="140" width="250" height="120" rx="18" fill="#fef3c7" stroke="#f59e0b"/>
<text x="692" y="205" font-size="24" fill="#92400e" font-family="Arial, Helvetica, sans-serif">Evidence</text>
<text x="692" y="236" font-size="18" fill="#92400e" font-family="Arial, Helvetica, sans-serif">logs, reports, checks</text>
<rect x="930" y="140" width="210" height="120" rx="18" fill="#ede9fe" stroke="#8b5cf6"/>
<text x="964" y="205" font-size="24" fill="#5b21b6" font-family="Arial, Helvetica, sans-serif">Outcome</text>
<text x="964" y="236" font-size="18" fill="#5b21b6" font-family="Arial, Helvetica, sans-serif">reviewable delivery</text>
<line x1="310" y1="200" x2="350" y2="200" stroke="#64748b" stroke-width="4"/>
<line x1="600" y1="200" x2="640" y2="200" stroke="#64748b" stroke-width="4"/>
<line x1="890" y1="200" x2="930" y2="200" stroke="#64748b" stroke-width="4"/>
<rect x="60" y="330" width="1080" height="340" rx="24" fill="#ffffff" stroke="#cbd5e1"/>
<text x="90" y="390" font-size="28" fill="#0f172a" font-family="Arial, Helvetica, sans-serif">Architecture, permissions and resilience notes</text>
<text x="90" y="440" font-size="22" fill="#334155" font-family="Arial, Helvetica, sans-serif">Focus: Operational runbooks for incidents, changes and evidence-oriented execution</text>
<text x="90" y="490" font-size="20" fill="#475569" font-family="Arial, Helvetica, sans-serif">Use this view for architecture workshops, governance discussions and onboarding demos.</text>
<text x="90" y="540" font-size="20" fill="#475569" font-family="Arial, Helvetica, sans-serif">Pair with sample reports, walkthroughs and HTML demo pages for a stronger public presentation.</text>
</svg>